# xmcd
#
# Track frame offsets:
#        150
#        4831
#        23477
#        39362
#        57529
#        77276
#        84652
#        103247
#        123862
#        141013
#        159897
#        180524
#
# Disc length: 2666 seconds
#
# Revision: 0
# Processed by: cddbd v1.5.1PL0 Copyright (c) Steve Scherf et al.
# Submitted via: ExactAudioCopy v0.95a5
#
DISCID=840a680c
DTITLE=VoVoTau - VoVoTau MUSILIC GAME
DYEAR=2004
DGENRE=JPop
TTITLE0=Intro
TTITLE1=BLOW OUT
TTITLE2=Can u Stay
TTITLE3=Song for you
TTITLE4=Mizubasyou
TTITLE5=skit
TTITLE6=Glory Day
TTITLE7=Mirror ball
TTITLE8=Capsule
TTITLE9=No Name
TTITLE10=secret
TTITLE11=Siren
EXTD=
EXTT0=
EXTT1=
EXTT2=
EXTT3=
EXTT4=
EXTT5=
EXTT6=
EXTT7=
EXTT8=
EXTT9=
EXTT10=
EXTT11=
PLAYORDER=
